G04*
G04 #@! TF.GenerationSoftware,Altium Limited,Altium Designer,25.5.2 (35)*
G04*
G04 Layer_Color=8388736*
%FSLAX25Y25*%
%MOIN*%
G70*
G04*
G04 #@! TF.SameCoordinates,2A145D8D-9587-4F24-A34D-C9C291957F30*
G04*
G04*
G04 #@! TF.FilePolarity,Negative*
G04*
G01*
G75*
%ADD10C,0.00787*%
%ADD12C,0.01181*%
G04:AMPARAMS|DCode=13|XSize=81.89mil|YSize=62.21mil|CornerRadius=16.34mil|HoleSize=0mil|Usage=FLASHONLY|Rotation=0.000|XOffset=0mil|YOffset=0mil|HoleType=Round|Shape=RoundedRectangle|*
%AMROUNDEDRECTD13*
21,1,0.08189,0.02953,0,0,0.0*
21,1,0.04921,0.06221,0,0,0.0*
1,1,0.03268,0.02461,-0.01476*
1,1,0.03268,-0.02461,-0.01476*
1,1,0.03268,-0.02461,0.01476*
1,1,0.03268,0.02461,0.01476*
%
%ADD13ROUNDEDRECTD13*%
G04:AMPARAMS|DCode=14|XSize=66.14mil|YSize=62.21mil|CornerRadius=16.34mil|HoleSize=0mil|Usage=FLASHONLY|Rotation=0.000|XOffset=0mil|YOffset=0mil|HoleType=Round|Shape=RoundedRectangle|*
%AMROUNDEDRECTD14*
21,1,0.06614,0.02953,0,0,0.0*
21,1,0.03347,0.06221,0,0,0.0*
1,1,0.03268,0.01673,-0.01476*
1,1,0.03268,-0.01673,-0.01476*
1,1,0.03268,-0.01673,0.01476*
1,1,0.03268,0.01673,0.01476*
%
%ADD14ROUNDEDRECTD14*%
%ADD15R,0.06024X0.04842*%
%ADD16R,0.03465X0.03465*%
G04:AMPARAMS|DCode=17|XSize=64.17mil|YSize=26.77mil|CornerRadius=7.48mil|HoleSize=0mil|Usage=FLASHONLY|Rotation=90.000|XOffset=0mil|YOffset=0mil|HoleType=Round|Shape=RoundedRectangle|*
%AMROUNDEDRECTD17*
21,1,0.06417,0.01181,0,0,90.0*
21,1,0.04921,0.02677,0,0,90.0*
1,1,0.01496,0.00591,0.02461*
1,1,0.01496,0.00591,-0.02461*
1,1,0.01496,-0.00591,-0.02461*
1,1,0.01496,-0.00591,0.02461*
%
%ADD17ROUNDEDRECTD17*%
%ADD18R,0.03465X0.03465*%
%ADD19R,0.05433X0.05433*%
%ADD20R,0.05433X0.05433*%
%ADD21R,0.02874X0.02284*%
G04:AMPARAMS|DCode=22|XSize=64.17mil|YSize=26.77mil|CornerRadius=7.48mil|HoleSize=0mil|Usage=FLASHONLY|Rotation=0.000|XOffset=0mil|YOffset=0mil|HoleType=Round|Shape=RoundedRectangle|*
%AMROUNDEDRECTD22*
21,1,0.06417,0.01181,0,0,0.0*
21,1,0.04921,0.02677,0,0,0.0*
1,1,0.01496,0.02461,-0.00591*
1,1,0.01496,-0.02461,-0.00591*
1,1,0.01496,-0.02461,0.00591*
1,1,0.01496,0.02461,0.00591*
%
%ADD22ROUNDEDRECTD22*%
%ADD23R,0.04842X0.06024*%
%ADD24R,0.03268X0.04252*%
%ADD25R,0.04252X0.03268*%
%ADD26R,0.23937X0.10158*%
%ADD27R,0.05433X0.08189*%
%ADD28R,0.08189X0.05433*%
%ADD29C,0.06312*%
%ADD30C,0.08189*%
%ADD31C,0.06221*%
%ADD32C,0.05039*%
%ADD33O,0.07402X0.10158*%
%ADD34C,0.09173*%
%ADD35R,0.08189X0.08189*%
G36*
X196850Y190945D02*
X190945D01*
Y192913D01*
X192520D01*
X192913Y193307D01*
Y194488D01*
X192520Y194882D01*
X190945D01*
Y196850D01*
X192913D01*
Y195276D01*
X192913D01*
X193307Y194882D01*
X194488D01*
X194882Y195276D01*
Y196850D01*
X196850D01*
Y190945D01*
D02*
G37*
G36*
X145700Y153305D02*
X145730Y153296D01*
X145757Y153281D01*
X145781Y153261D01*
X145801Y153237D01*
X145816Y153210D01*
X145825Y153181D01*
X145827Y153150D01*
Y149213D01*
X145825Y149182D01*
X145816Y149152D01*
X145801Y149125D01*
X145781Y149101D01*
X145757Y149081D01*
X145730Y149066D01*
X145700Y149057D01*
X145669Y149054D01*
X143996D01*
X143965Y149057D01*
X143936Y149066D01*
X143908Y149081D01*
X143884Y149101D01*
X142900Y150085D01*
X142880Y150109D01*
X142873Y150123D01*
X142866Y150136D01*
X142857Y150166D01*
X142854Y150197D01*
Y152165D01*
X142857Y152196D01*
X142866Y152226D01*
X142880Y152253D01*
X142900Y152277D01*
X143884Y153261D01*
X143908Y153281D01*
X143936Y153296D01*
X143965Y153305D01*
X143996Y153308D01*
X145669D01*
X145700Y153305D01*
D02*
G37*
G36*
X148161D02*
X148190Y153296D01*
X148204Y153288D01*
X148218Y153281D01*
X148242Y153261D01*
X149226Y152277D01*
X149246Y152253D01*
X149260Y152226D01*
X149269Y152196D01*
X149272Y152165D01*
Y150197D01*
X149269Y150166D01*
X149260Y150136D01*
X149246Y150109D01*
X149226Y150085D01*
X148242Y149101D01*
X148218Y149081D01*
X148190Y149066D01*
X148161Y149057D01*
X148130Y149054D01*
X146555D01*
X146524Y149057D01*
X146495Y149066D01*
X146467Y149081D01*
X146443Y149101D01*
X146424Y149125D01*
X146409Y149152D01*
X146400Y149182D01*
X146397Y149213D01*
Y153150D01*
X146400Y153181D01*
X146409Y153210D01*
X146424Y153237D01*
X146443Y153261D01*
X146467Y153281D01*
X146495Y153296D01*
X146524Y153305D01*
X146555Y153308D01*
X148130D01*
X148161Y153305D01*
D02*
G37*
G36*
X121192Y144840D02*
X121222Y144831D01*
X121249Y144817D01*
X121273Y144797D01*
X122258Y143813D01*
X122277Y143789D01*
X122285Y143775D01*
X122292Y143761D01*
X122301Y143732D01*
X122304Y143701D01*
Y141732D01*
X122301Y141701D01*
X122292Y141672D01*
X122277Y141644D01*
X122258Y141620D01*
X121273Y140636D01*
X121249Y140617D01*
X121222Y140602D01*
X121192Y140593D01*
X121161Y140590D01*
X119488D01*
X119457Y140593D01*
X119428Y140602D01*
X119400Y140617D01*
X119376Y140636D01*
X119357Y140660D01*
X119342Y140688D01*
X119333Y140717D01*
X119330Y140748D01*
Y144685D01*
X119333Y144716D01*
X119342Y144746D01*
X119357Y144773D01*
X119376Y144797D01*
X119400Y144817D01*
X119428Y144831D01*
X119457Y144840D01*
X119488Y144843D01*
X121161D01*
X121192Y144840D01*
D02*
G37*
G36*
X118633Y144840D02*
X118663Y144831D01*
X118690Y144817D01*
X118714Y144797D01*
X118734Y144773D01*
X118749Y144746D01*
X118758Y144716D01*
X118761Y144685D01*
Y140748D01*
X118758Y140717D01*
X118749Y140688D01*
X118734Y140660D01*
X118714Y140636D01*
X118690Y140617D01*
X118663Y140602D01*
X118633Y140593D01*
X118602Y140590D01*
X117027D01*
X116997Y140593D01*
X116967Y140602D01*
X116953Y140609D01*
X116940Y140617D01*
X116916Y140636D01*
X115931Y141620D01*
X115912Y141644D01*
X115897Y141672D01*
X115888Y141701D01*
X115885Y141732D01*
Y143701D01*
X115888Y143732D01*
X115897Y143761D01*
X115912Y143789D01*
X115931Y143813D01*
X116916Y144797D01*
X116940Y144817D01*
X116967Y144831D01*
X116997Y144840D01*
X117028Y144843D01*
X118602D01*
X118633Y144840D01*
D02*
G37*
G36*
X183200Y132045D02*
X183230Y132036D01*
X183257Y132021D01*
X183281Y132002D01*
X184265Y131017D01*
X184285Y130993D01*
X184292Y130980D01*
X184300Y130966D01*
X184309Y130936D01*
X184312Y130905D01*
Y128937D01*
X184309Y128906D01*
X184300Y128876D01*
X184285Y128849D01*
X184265Y128825D01*
X183281Y127841D01*
X183257Y127821D01*
X183230Y127807D01*
X183200Y127798D01*
X183169Y127795D01*
X181496D01*
X181465Y127798D01*
X181436Y127807D01*
X181408Y127821D01*
X181384Y127841D01*
X181365Y127865D01*
X181350Y127892D01*
X181341Y127922D01*
X181338Y127953D01*
Y131890D01*
X181341Y131921D01*
X181350Y131950D01*
X181365Y131978D01*
X181384Y132002D01*
X181408Y132021D01*
X181436Y132036D01*
X181465Y132045D01*
X181496Y132048D01*
X183169D01*
X183200Y132045D01*
D02*
G37*
G36*
X180641Y132045D02*
X180671Y132036D01*
X180698Y132021D01*
X180722Y132002D01*
X180742Y131978D01*
X180756Y131950D01*
X180765Y131921D01*
X180769Y131890D01*
Y127953D01*
X180765Y127922D01*
X180756Y127892D01*
X180742Y127865D01*
X180722Y127841D01*
X180698Y127821D01*
X180671Y127807D01*
X180641Y127798D01*
X180610Y127795D01*
X179035D01*
X179005Y127798D01*
X178975Y127807D01*
X178961Y127814D01*
X178947Y127821D01*
X178923Y127841D01*
X177939Y128825D01*
X177920Y128849D01*
X177905Y128876D01*
X177896Y128906D01*
X177893Y128937D01*
Y130905D01*
X177896Y130936D01*
X177905Y130966D01*
X177920Y130993D01*
X177939Y131017D01*
X178923Y132002D01*
X178947Y132021D01*
X178975Y132036D01*
X179005Y132045D01*
X179035Y132048D01*
X180610D01*
X180641Y132045D01*
D02*
G37*
G36*
X144716Y125254D02*
X144746Y125245D01*
X144773Y125230D01*
X144797Y125210D01*
X145781Y124226D01*
X145801Y124202D01*
X145816Y124175D01*
X145825Y124145D01*
X145827Y124114D01*
Y122441D01*
X145825Y122410D01*
X145816Y122380D01*
X145801Y122353D01*
X145781Y122329D01*
X145757Y122309D01*
X145730Y122295D01*
X145700Y122286D01*
X145669Y122283D01*
X141732D01*
X141701Y122286D01*
X141672Y122295D01*
X141644Y122309D01*
X141620Y122329D01*
X141601Y122353D01*
X141586Y122380D01*
X141577Y122410D01*
X141574Y122441D01*
Y124114D01*
X141577Y124145D01*
X141586Y124175D01*
X141601Y124202D01*
X141620Y124226D01*
X142605Y125210D01*
X142629Y125230D01*
X142642Y125237D01*
X142656Y125245D01*
X142686Y125254D01*
X142717Y125257D01*
X144685D01*
X144716Y125254D01*
D02*
G37*
G36*
X145700Y121710D02*
X145730Y121701D01*
X145757Y121687D01*
X145781Y121667D01*
X145801Y121643D01*
X145816Y121616D01*
X145825Y121586D01*
X145827Y121555D01*
Y119980D01*
X145825Y119949D01*
X145816Y119920D01*
X145808Y119906D01*
X145801Y119892D01*
X145781Y119868D01*
X144797Y118884D01*
X144773Y118865D01*
X144746Y118850D01*
X144716Y118841D01*
X144685Y118838D01*
X142717D01*
X142686Y118841D01*
X142656Y118850D01*
X142629Y118865D01*
X142605Y118884D01*
X141620Y119868D01*
X141601Y119892D01*
X141586Y119920D01*
X141577Y119949D01*
X141574Y119980D01*
Y121555D01*
X141577Y121586D01*
X141586Y121616D01*
X141601Y121643D01*
X141620Y121667D01*
X141644Y121687D01*
X141672Y121701D01*
X141701Y121710D01*
X141732Y121713D01*
X145669D01*
X145700Y121710D01*
D02*
G37*
G36*
X25621Y118404D02*
X25651Y118395D01*
X25678Y118380D01*
X25702Y118361D01*
X26687Y117376D01*
X26706Y117352D01*
X26714Y117339D01*
X26721Y117325D01*
X26730Y117295D01*
X26733Y117264D01*
Y115296D01*
X26730Y115265D01*
X26721Y115235D01*
X26706Y115208D01*
X26687Y115184D01*
X25702Y114200D01*
X25678Y114180D01*
X25651Y114165D01*
X25621Y114156D01*
X25591Y114153D01*
X23917D01*
X23886Y114156D01*
X23857Y114165D01*
X23829Y114180D01*
X23805Y114200D01*
X23786Y114224D01*
X23771Y114251D01*
X23762Y114281D01*
X23759Y114312D01*
Y118249D01*
X23762Y118280D01*
X23771Y118309D01*
X23786Y118337D01*
X23805Y118360D01*
X23829Y118380D01*
X23857Y118395D01*
X23886Y118404D01*
X23917Y118407D01*
X25591D01*
X25621Y118404D01*
D02*
G37*
G36*
X23062Y118404D02*
X23092Y118395D01*
X23119Y118380D01*
X23143Y118361D01*
X23163Y118337D01*
X23178Y118309D01*
X23187Y118280D01*
X23190Y118249D01*
Y114312D01*
X23187Y114281D01*
X23178Y114251D01*
X23163Y114224D01*
X23143Y114200D01*
X23119Y114180D01*
X23092Y114165D01*
X23062Y114156D01*
X23031Y114153D01*
X21457D01*
X21426Y114156D01*
X21396Y114165D01*
X21382Y114173D01*
X21369Y114180D01*
X21345Y114200D01*
X20360Y115184D01*
X20341Y115208D01*
X20326Y115235D01*
X20317Y115265D01*
X20314Y115296D01*
Y117264D01*
X20317Y117295D01*
X20326Y117325D01*
X20341Y117352D01*
X20360Y117376D01*
X21345Y118361D01*
X21369Y118380D01*
X21396Y118395D01*
X21426Y118404D01*
X21457Y118407D01*
X23031D01*
X23062Y118404D01*
D02*
G37*
G36*
X23161Y111514D02*
X23190Y111505D01*
X23218Y111490D01*
X23242Y111471D01*
X23261Y111447D01*
X23276Y111419D01*
X23285Y111390D01*
X23288Y111359D01*
Y107422D01*
X23285Y107391D01*
X23276Y107361D01*
X23261Y107334D01*
X23242Y107310D01*
X23218Y107290D01*
X23190Y107276D01*
X23161Y107267D01*
X23130Y107264D01*
X21457D01*
X21426Y107267D01*
X21396Y107276D01*
X21369Y107290D01*
X21345Y107310D01*
X20360Y108294D01*
X20341Y108318D01*
X20334Y108332D01*
X20326Y108346D01*
X20317Y108375D01*
X20314Y108406D01*
Y110375D01*
X20317Y110406D01*
X20326Y110435D01*
X20341Y110463D01*
X20360Y110486D01*
X21345Y111471D01*
X21369Y111490D01*
X21396Y111505D01*
X21426Y111514D01*
X21457Y111517D01*
X23130D01*
X23161Y111514D01*
D02*
G37*
G36*
X25621D02*
X25651Y111505D01*
X25665Y111498D01*
X25679Y111490D01*
X25702Y111471D01*
X26687Y110486D01*
X26706Y110463D01*
X26721Y110435D01*
X26730Y110406D01*
X26733Y110375D01*
Y108406D01*
X26730Y108375D01*
X26721Y108346D01*
X26706Y108318D01*
X26687Y108294D01*
X25702Y107310D01*
X25678Y107290D01*
X25651Y107276D01*
X25621Y107267D01*
X25591Y107264D01*
X24016D01*
X23985Y107267D01*
X23955Y107276D01*
X23928Y107290D01*
X23904Y107310D01*
X23884Y107334D01*
X23870Y107361D01*
X23860Y107391D01*
X23857Y107422D01*
Y111359D01*
X23860Y111390D01*
X23870Y111419D01*
X23884Y111447D01*
X23904Y111471D01*
X23928Y111490D01*
X23955Y111505D01*
X23985Y111514D01*
X24016Y111517D01*
X25591D01*
X25621Y111514D01*
D02*
G37*
G36*
X23161Y104624D02*
X23190Y104615D01*
X23218Y104601D01*
X23242Y104581D01*
X23261Y104557D01*
X23276Y104530D01*
X23285Y104500D01*
X23288Y104469D01*
Y100532D01*
X23285Y100501D01*
X23276Y100472D01*
X23261Y100444D01*
X23242Y100420D01*
X23218Y100401D01*
X23190Y100386D01*
X23161Y100377D01*
X23130Y100374D01*
X21457D01*
X21426Y100377D01*
X21396Y100386D01*
X21369Y100401D01*
X21345Y100420D01*
X20360Y101405D01*
X20341Y101428D01*
X20334Y101442D01*
X20326Y101456D01*
X20317Y101486D01*
X20314Y101516D01*
Y103485D01*
X20317Y103516D01*
X20326Y103545D01*
X20341Y103573D01*
X20360Y103597D01*
X21345Y104581D01*
X21369Y104601D01*
X21396Y104615D01*
X21426Y104624D01*
X21457Y104627D01*
X23130D01*
X23161Y104624D01*
D02*
G37*
G36*
X25621D02*
X25651Y104615D01*
X25665Y104608D01*
X25679Y104601D01*
X25702Y104581D01*
X26687Y103597D01*
X26706Y103573D01*
X26721Y103545D01*
X26730Y103516D01*
X26733Y103485D01*
Y101516D01*
X26730Y101486D01*
X26721Y101456D01*
X26706Y101428D01*
X26687Y101405D01*
X25702Y100420D01*
X25678Y100400D01*
X25651Y100386D01*
X25621Y100377D01*
X25591Y100374D01*
X24016D01*
X23985Y100377D01*
X23955Y100386D01*
X23928Y100400D01*
X23904Y100420D01*
X23884Y100444D01*
X23870Y100472D01*
X23860Y100501D01*
X23857Y100532D01*
Y104469D01*
X23860Y104500D01*
X23870Y104530D01*
X23884Y104557D01*
X23904Y104581D01*
X23928Y104601D01*
X23955Y104615D01*
X23985Y104624D01*
X24016Y104627D01*
X25591D01*
X25621Y104624D01*
D02*
G37*
G36*
X132019Y83537D02*
X132049Y83528D01*
X132076Y83514D01*
X132100Y83494D01*
X133084Y82510D01*
X133104Y82486D01*
X133119Y82458D01*
X133128Y82429D01*
X133131Y82398D01*
Y80823D01*
X133128Y80792D01*
X133119Y80762D01*
X133104Y80735D01*
X133084Y80711D01*
X133060Y80691D01*
X133033Y80677D01*
X133003Y80668D01*
X132973Y80665D01*
X129035D01*
X129005Y80668D01*
X128975Y80677D01*
X128947Y80691D01*
X128924Y80711D01*
X128904Y80735D01*
X128889Y80762D01*
X128880Y80792D01*
X128877Y80823D01*
Y82398D01*
X128880Y82429D01*
X128889Y82458D01*
X128897Y82472D01*
X128904Y82486D01*
X128924Y82510D01*
X129908Y83494D01*
X129932Y83514D01*
X129959Y83528D01*
X129989Y83537D01*
X130020Y83540D01*
X131988D01*
X132019Y83537D01*
D02*
G37*
G36*
X70995D02*
X71025Y83528D01*
X71052Y83514D01*
X71077Y83494D01*
X72061Y82510D01*
X72080Y82486D01*
X72095Y82458D01*
X72104Y82429D01*
X72107Y82398D01*
Y80823D01*
X72104Y80792D01*
X72095Y80762D01*
X72080Y80735D01*
X72061Y80711D01*
X72037Y80691D01*
X72009Y80677D01*
X71980Y80668D01*
X71949Y80665D01*
X68012D01*
X67981Y80668D01*
X67951Y80677D01*
X67924Y80691D01*
X67900Y80711D01*
X67880Y80735D01*
X67866Y80762D01*
X67857Y80792D01*
X67854Y80823D01*
Y82398D01*
X67857Y82429D01*
X67866Y82458D01*
X67873Y82472D01*
X67880Y82486D01*
X67900Y82510D01*
X68884Y83494D01*
X68908Y83514D01*
X68936Y83528D01*
X68965Y83537D01*
X68996Y83540D01*
X70965D01*
X70995Y83537D01*
D02*
G37*
G36*
X133003Y80092D02*
X133033Y80083D01*
X133060Y80069D01*
X133084Y80049D01*
X133104Y80025D01*
X133119Y79998D01*
X133128Y79968D01*
X133131Y79937D01*
Y78264D01*
X133128Y78233D01*
X133119Y78203D01*
X133104Y78176D01*
X133084Y78152D01*
X132100Y77168D01*
X132076Y77148D01*
X132062Y77141D01*
X132049Y77134D01*
X132019Y77125D01*
X131988Y77122D01*
X130020D01*
X129989Y77125D01*
X129959Y77134D01*
X129932Y77148D01*
X129908Y77168D01*
X128924Y78152D01*
X128904Y78176D01*
X128889Y78203D01*
X128880Y78233D01*
X128877Y78264D01*
Y79937D01*
X128880Y79968D01*
X128889Y79998D01*
X128904Y80025D01*
X128924Y80049D01*
X128947Y80069D01*
X128975Y80083D01*
X129005Y80092D01*
X129035Y80095D01*
X132972D01*
X133003Y80092D01*
D02*
G37*
G36*
X71980D02*
X72009Y80083D01*
X72037Y80069D01*
X72061Y80049D01*
X72080Y80025D01*
X72095Y79998D01*
X72104Y79968D01*
X72107Y79937D01*
Y78264D01*
X72104Y78233D01*
X72095Y78203D01*
X72080Y78176D01*
X72061Y78152D01*
X71077Y77168D01*
X71052Y77148D01*
X71039Y77141D01*
X71025Y77134D01*
X70995Y77125D01*
X70965Y77122D01*
X68996D01*
X68965Y77125D01*
X68936Y77134D01*
X68908Y77148D01*
X68884Y77168D01*
X67900Y78152D01*
X67880Y78176D01*
X67866Y78203D01*
X67857Y78233D01*
X67854Y78264D01*
Y79937D01*
X67857Y79968D01*
X67866Y79998D01*
X67880Y80025D01*
X67900Y80049D01*
X67924Y80069D01*
X67951Y80083D01*
X67981Y80092D01*
X68012Y80095D01*
X71949D01*
X71980Y80092D01*
D02*
G37*
G36*
X61054Y76041D02*
X61084Y76032D01*
X61111Y76017D01*
X61136Y75998D01*
X62120Y75014D01*
X62139Y74989D01*
X62154Y74962D01*
X62163Y74932D01*
X62166Y74902D01*
Y73228D01*
X62163Y73198D01*
X62154Y73168D01*
X62139Y73140D01*
X62120Y73116D01*
X62096Y73097D01*
X62068Y73082D01*
X62039Y73073D01*
X62008Y73070D01*
X58071D01*
X58040Y73073D01*
X58010Y73082D01*
X57983Y73097D01*
X57959Y73116D01*
X57939Y73140D01*
X57925Y73168D01*
X57916Y73198D01*
X57913Y73228D01*
Y74902D01*
X57916Y74932D01*
X57925Y74962D01*
X57939Y74989D01*
X57959Y75014D01*
X58943Y75998D01*
X58967Y76017D01*
X58981Y76025D01*
X58995Y76032D01*
X59024Y76041D01*
X59055Y76044D01*
X61024D01*
X61054Y76041D01*
D02*
G37*
G36*
X44913Y75943D02*
X44943Y75934D01*
X44970Y75919D01*
X44994Y75899D01*
X45013Y75875D01*
X45028Y75848D01*
X45037Y75818D01*
X45040Y75787D01*
Y71850D01*
X45037Y71820D01*
X45028Y71790D01*
X45013Y71763D01*
X44994Y71738D01*
X44970Y71719D01*
X44943Y71704D01*
X44913Y71695D01*
X44882Y71692D01*
X43209D01*
X43178Y71695D01*
X43148Y71704D01*
X43121Y71719D01*
X43097Y71738D01*
X42112Y72723D01*
X42093Y72747D01*
X42085Y72760D01*
X42078Y72774D01*
X42069Y72804D01*
X42066Y72835D01*
Y74803D01*
X42069Y74834D01*
X42078Y74864D01*
X42093Y74891D01*
X42112Y74915D01*
X43097Y75899D01*
X43121Y75919D01*
X43148Y75934D01*
X43178Y75943D01*
X43209Y75946D01*
X44882D01*
X44913Y75943D01*
D02*
G37*
G36*
X47373D02*
X47403Y75934D01*
X47417Y75926D01*
X47431Y75919D01*
X47454Y75899D01*
X48439Y74915D01*
X48458Y74891D01*
X48473Y74864D01*
X48482Y74834D01*
X48485Y74803D01*
Y72835D01*
X48482Y72804D01*
X48473Y72774D01*
X48458Y72747D01*
X48439Y72723D01*
X47454Y71738D01*
X47430Y71719D01*
X47403Y71704D01*
X47373Y71695D01*
X47343Y71692D01*
X45768D01*
X45737Y71695D01*
X45707Y71704D01*
X45680Y71719D01*
X45656Y71738D01*
X45636Y71763D01*
X45621Y71790D01*
X45612Y71820D01*
X45610Y71850D01*
Y75787D01*
X45612Y75818D01*
X45621Y75848D01*
X45636Y75875D01*
X45656Y75899D01*
X45680Y75919D01*
X45707Y75934D01*
X45737Y75943D01*
X45768Y75946D01*
X47343D01*
X47373Y75943D01*
D02*
G37*
G36*
X62039Y72498D02*
X62068Y72489D01*
X62096Y72474D01*
X62120Y72454D01*
X62139Y72430D01*
X62154Y72403D01*
X62163Y72373D01*
X62166Y72342D01*
Y70768D01*
X62163Y70737D01*
X62154Y70707D01*
X62147Y70693D01*
X62139Y70680D01*
X62120Y70656D01*
X61136Y69672D01*
X61111Y69652D01*
X61084Y69637D01*
X61054Y69628D01*
X61024Y69625D01*
X59055D01*
X59024Y69628D01*
X58995Y69637D01*
X58967Y69652D01*
X58943Y69672D01*
X57959Y70656D01*
X57939Y70680D01*
X57925Y70707D01*
X57916Y70737D01*
X57913Y70768D01*
Y72342D01*
X57916Y72373D01*
X57925Y72403D01*
X57939Y72430D01*
X57959Y72454D01*
X57983Y72474D01*
X58010Y72489D01*
X58040Y72498D01*
X58071Y72501D01*
X62008D01*
X62039Y72498D01*
D02*
G37*
G36*
X25720Y37557D02*
X25749Y37548D01*
X25777Y37533D01*
X25801Y37514D01*
X26785Y36529D01*
X26805Y36505D01*
X26812Y36492D01*
X26819Y36478D01*
X26828Y36448D01*
X26831Y36417D01*
Y34449D01*
X26828Y34418D01*
X26819Y34388D01*
X26805Y34361D01*
X26785Y34337D01*
X25801Y33353D01*
X25777Y33333D01*
X25749Y33318D01*
X25720Y33309D01*
X25689Y33306D01*
X24016D01*
X23985Y33309D01*
X23955Y33318D01*
X23928Y33333D01*
X23904Y33353D01*
X23884Y33377D01*
X23870Y33404D01*
X23861Y33434D01*
X23857Y33465D01*
Y37402D01*
X23861Y37432D01*
X23870Y37462D01*
X23884Y37490D01*
X23904Y37514D01*
X23928Y37533D01*
X23955Y37548D01*
X23985Y37557D01*
X24016Y37560D01*
X25689D01*
X25720Y37557D01*
D02*
G37*
G36*
X23161Y37557D02*
X23190Y37548D01*
X23218Y37533D01*
X23242Y37514D01*
X23261Y37490D01*
X23276Y37462D01*
X23285Y37433D01*
X23288Y37402D01*
Y33465D01*
X23285Y33434D01*
X23276Y33404D01*
X23261Y33377D01*
X23242Y33353D01*
X23218Y33333D01*
X23190Y33318D01*
X23161Y33309D01*
X23130Y33306D01*
X21555D01*
X21524Y33309D01*
X21495Y33318D01*
X21481Y33326D01*
X21467Y33333D01*
X21443Y33353D01*
X20459Y34337D01*
X20439Y34361D01*
X20425Y34388D01*
X20416Y34418D01*
X20413Y34449D01*
Y36417D01*
X20416Y36448D01*
X20425Y36478D01*
X20439Y36505D01*
X20459Y36529D01*
X21443Y37514D01*
X21467Y37533D01*
X21495Y37548D01*
X21524Y37557D01*
X21555Y37560D01*
X23130D01*
X23161Y37557D01*
D02*
G37*
G36*
X72275Y35096D02*
X72305Y35087D01*
X72332Y35072D01*
X72356Y35053D01*
X73340Y34069D01*
X73360Y34045D01*
X73374Y34017D01*
X73383Y33988D01*
X73387Y33957D01*
Y32283D01*
X73383Y32253D01*
X73374Y32223D01*
X73360Y32195D01*
X73340Y32172D01*
X73316Y32152D01*
X73289Y32137D01*
X73259Y32128D01*
X73228Y32125D01*
X69291D01*
X69261Y32128D01*
X69231Y32137D01*
X69203Y32152D01*
X69179Y32172D01*
X69160Y32195D01*
X69145Y32223D01*
X69136Y32253D01*
X69133Y32283D01*
Y33957D01*
X69136Y33988D01*
X69145Y34017D01*
X69160Y34045D01*
X69179Y34069D01*
X70164Y35053D01*
X70188Y35072D01*
X70201Y35080D01*
X70215Y35087D01*
X70245Y35096D01*
X70276Y35099D01*
X72244D01*
X72275Y35096D01*
D02*
G37*
G36*
X73259Y31553D02*
X73289Y31544D01*
X73316Y31529D01*
X73340Y31510D01*
X73360Y31486D01*
X73374Y31458D01*
X73383Y31429D01*
X73387Y31398D01*
Y29823D01*
X73383Y29792D01*
X73374Y29762D01*
X73367Y29749D01*
X73360Y29735D01*
X73340Y29711D01*
X72356Y28727D01*
X72332Y28707D01*
X72305Y28692D01*
X72275Y28683D01*
X72244Y28680D01*
X70276D01*
X70245Y28683D01*
X70215Y28692D01*
X70188Y28707D01*
X70164Y28727D01*
X69179Y29711D01*
X69160Y29735D01*
X69145Y29762D01*
X69136Y29792D01*
X69133Y29823D01*
Y31398D01*
X69136Y31429D01*
X69145Y31458D01*
X69160Y31486D01*
X69179Y31510D01*
X69203Y31529D01*
X69231Y31544D01*
X69261Y31553D01*
X69291Y31556D01*
X73228D01*
X73259Y31553D01*
D02*
G37*
G36*
X129952Y13049D02*
X129982Y13040D01*
X130009Y13025D01*
X130033Y13006D01*
X131017Y12021D01*
X131037Y11997D01*
X131052Y11970D01*
X131061Y11940D01*
X131064Y11909D01*
Y10236D01*
X131061Y10205D01*
X131052Y10176D01*
X131037Y10148D01*
X131017Y10124D01*
X130993Y10105D01*
X130966Y10090D01*
X130936Y10081D01*
X130905Y10078D01*
X126969D01*
X126938Y10081D01*
X126908Y10090D01*
X126881Y10105D01*
X126857Y10124D01*
X126837Y10148D01*
X126822Y10176D01*
X126813Y10205D01*
X126810Y10236D01*
Y11909D01*
X126813Y11940D01*
X126822Y11970D01*
X126837Y11997D01*
X126857Y12021D01*
X127841Y13006D01*
X127865Y13025D01*
X127878Y13033D01*
X127892Y13040D01*
X127922Y13049D01*
X127953Y13052D01*
X129921D01*
X129952Y13049D01*
D02*
G37*
G36*
X130936Y9506D02*
X130966Y9497D01*
X130993Y9482D01*
X131017Y9462D01*
X131037Y9438D01*
X131052Y9411D01*
X131061Y9381D01*
X131064Y9350D01*
Y7776D01*
X131061Y7745D01*
X131052Y7715D01*
X131044Y7701D01*
X131037Y7688D01*
X131017Y7664D01*
X130033Y6679D01*
X130009Y6660D01*
X129982Y6645D01*
X129952Y6636D01*
X129921Y6633D01*
X127953D01*
X127922Y6636D01*
X127892Y6645D01*
X127865Y6660D01*
X127841Y6679D01*
X126857Y7664D01*
X126837Y7688D01*
X126822Y7715D01*
X126813Y7745D01*
X126810Y7776D01*
Y9350D01*
X126813Y9381D01*
X126822Y9411D01*
X126837Y9438D01*
X126857Y9462D01*
X126881Y9482D01*
X126908Y9497D01*
X126938Y9506D01*
X126969Y9509D01*
X130905D01*
X130936Y9506D01*
D02*
G37*
D10*
X187068Y188001D02*
Y184065D01*
X185100D01*
X184444Y184721D01*
Y186033D01*
X185100Y186689D01*
X187068D01*
X185756D02*
X184444Y188001D01*
X181164D02*
X182476D01*
X183132Y187345D01*
Y186033D01*
X182476Y185377D01*
X181164D01*
X180508Y186033D01*
Y186689D01*
X183132D01*
X179196Y188001D02*
X177228D01*
X176572Y187345D01*
X177228Y186689D01*
X178540D01*
X179196Y186033D01*
X178540Y185377D01*
X176572D01*
X175260Y184065D02*
Y188001D01*
Y186033D01*
X174604Y185377D01*
X173293D01*
X172637Y186033D01*
Y188001D01*
X169357D02*
X170669D01*
X171325Y187345D01*
Y186033D01*
X170669Y185377D01*
X169357D01*
X168701Y186033D01*
Y186689D01*
X171325D01*
X166733Y184721D02*
Y185377D01*
X167389D01*
X166077D01*
X166733D01*
Y187345D01*
X166077Y188001D01*
X164109D02*
Y185377D01*
X162141D01*
X161485Y186033D01*
Y188001D01*
X160173D02*
X158861D01*
X159518D01*
Y185377D01*
X160173D01*
X156894Y188001D02*
Y184065D01*
Y186689D02*
X154926Y185377D01*
X156894Y186689D02*
X154926Y188001D01*
X152302D02*
X150990D01*
X150334Y187345D01*
Y186033D01*
X150990Y185377D01*
X152302D01*
X152958Y186033D01*
Y187345D01*
X152302Y188001D01*
X149022Y185377D02*
X147710Y188001D01*
X146398Y185377D01*
X187008Y178611D02*
Y182546D01*
X185040D01*
X184384Y181890D01*
Y181234D01*
X185040Y180578D01*
X187008D01*
X185040D01*
X184384Y179922D01*
Y179267D01*
X185040Y178611D01*
X187008D01*
X182416Y182546D02*
X181104D01*
X180448Y181890D01*
Y180578D01*
X181104Y179922D01*
X182416D01*
X183072Y180578D01*
Y181890D01*
X182416Y182546D01*
X177824Y183858D02*
X177169D01*
X176513Y183202D01*
Y179922D01*
X178480D01*
X179136Y180578D01*
Y181890D01*
X178480Y182546D01*
X176513D01*
X172577Y178611D02*
Y182546D01*
X174545D01*
X175201Y181890D01*
Y180578D01*
X174545Y179922D01*
X172577D01*
X170609D02*
X169297D01*
X168641Y180578D01*
Y182546D01*
X170609D01*
X171265Y181890D01*
X170609Y181234D01*
X168641D01*
X167329Y182546D02*
Y179922D01*
X165361D01*
X164705Y180578D01*
Y182546D01*
X187008Y177165D02*
Y173230D01*
X185040D01*
X184384Y173886D01*
Y175198D01*
X185040Y175853D01*
X187008D01*
X185696D02*
X184384Y177165D01*
X181104D02*
X182416D01*
X183072Y176509D01*
Y175198D01*
X182416Y174541D01*
X181104D01*
X180448Y175198D01*
Y175853D01*
X183072D01*
X179136Y174541D02*
X177824Y177165D01*
X176513Y174541D01*
X175201Y177165D02*
X173889D01*
X174545D01*
Y174541D01*
X175201D01*
X171921Y177165D02*
X169953D01*
X169297Y176509D01*
X169953Y175853D01*
X171265D01*
X171921Y175198D01*
X171265Y174541D01*
X169297D01*
X167985Y177165D02*
X166673D01*
X167329D01*
Y174541D01*
X167985D01*
X164049Y177165D02*
X162738D01*
X162082Y176509D01*
Y175198D01*
X162738Y174541D01*
X164049D01*
X164705Y175198D01*
Y176509D01*
X164049Y177165D01*
X160770D02*
Y174541D01*
X158802D01*
X158146Y175198D01*
Y177165D01*
X152898Y173886D02*
X152242Y173230D01*
X150930D01*
X150274Y173886D01*
Y176509D01*
X150930Y177165D01*
X152242D01*
X152898Y176509D01*
Y173886D01*
X148962Y177165D02*
X147651D01*
X148306D01*
Y173230D01*
X148962Y173886D01*
D12*
X186978Y196500D02*
Y190596D01*
X184027D01*
X183043Y191580D01*
Y193548D01*
X184027Y194532D01*
X186978D01*
X180091Y192564D02*
X178123D01*
X177139Y193548D01*
Y196500D01*
X180091D01*
X181075Y195516D01*
X180091Y194532D01*
X177139D01*
X175171Y196500D02*
X173203D01*
X174187D01*
Y190596D01*
X175171D01*
X167300Y196500D02*
X169268D01*
X170252Y195516D01*
Y193548D01*
X169268Y192564D01*
X167300D01*
X166316Y193548D01*
Y194532D01*
X170252D01*
X154509Y191580D02*
X155493Y190596D01*
X157460D01*
X158444Y191580D01*
Y192564D01*
X157460Y193548D01*
X155493D01*
X154509Y194532D01*
Y195516D01*
X155493Y196500D01*
X157460D01*
X158444Y195516D01*
X152541Y196500D02*
X150573D01*
X151557D01*
Y192564D01*
X152541D01*
X144669Y196500D02*
X146637D01*
X147621Y195516D01*
Y193548D01*
X146637Y192564D01*
X144669D01*
X143685Y193548D01*
Y194532D01*
X147621D01*
X141718Y192564D02*
X139750Y196500D01*
X137782Y192564D01*
X132862Y196500D02*
X134830D01*
X135814Y195516D01*
Y193548D01*
X134830Y192564D01*
X132862D01*
X131878Y193548D01*
Y194532D01*
X135814D01*
D13*
X86811Y192913D02*
D03*
X113976D02*
D03*
X86811Y7874D02*
D03*
X113976D02*
D03*
D14*
X86221Y179724D02*
D03*
Y158268D02*
D03*
X114567Y164961D02*
D03*
Y156102D02*
D03*
Y21063D02*
D03*
Y42520D02*
D03*
X86221Y35827D02*
D03*
Y44685D02*
D03*
D15*
X176378Y138189D02*
D03*
X166339Y153937D02*
D03*
Y161024D02*
D03*
X176378Y145276D02*
D03*
X60039Y59646D02*
D03*
Y52559D02*
D03*
D16*
X147638Y139173D02*
D03*
X104331Y136811D02*
D03*
X52165Y73819D02*
D03*
X63779Y25000D02*
D03*
X147638Y145079D02*
D03*
X104331Y142717D02*
D03*
X52165Y67913D02*
D03*
X63779Y19094D02*
D03*
D17*
X168917Y124213D02*
D03*
X153917D02*
D03*
X158917D02*
D03*
X163917D02*
D03*
X153917Y145472D02*
D03*
X158917D02*
D03*
X163917D02*
D03*
X168917D02*
D03*
D18*
X171260Y115157D02*
D03*
X129035Y66551D02*
D03*
X71949D02*
D03*
X165354Y115157D02*
D03*
X151575D02*
D03*
X157480D02*
D03*
X123130Y66551D02*
D03*
X77854D02*
D03*
D19*
X167717Y84646D02*
D03*
X176772D02*
D03*
X155118D02*
D03*
X146063D02*
D03*
D20*
X45276Y83071D02*
D03*
Y92126D02*
D03*
D21*
X38878Y109252D02*
D03*
X38878Y102362D02*
D03*
X30020Y109252D02*
D03*
X30020Y102362D02*
D03*
D22*
X23819Y52539D02*
D03*
Y67539D02*
D03*
Y62539D02*
D03*
Y57539D02*
D03*
X45079Y67539D02*
D03*
Y62539D02*
D03*
Y57539D02*
D03*
Y52539D02*
D03*
D23*
X37795Y44291D02*
D03*
X44882D02*
D03*
D24*
X145866Y161417D02*
D03*
X151772D02*
D03*
X90551Y142717D02*
D03*
X96457D02*
D03*
X82677Y134843D02*
D03*
X76772D02*
D03*
X54134Y36417D02*
D03*
X60039D02*
D03*
X123130Y58677D02*
D03*
X117224D02*
D03*
X110335D02*
D03*
X104429D02*
D03*
X90650D02*
D03*
X96555D02*
D03*
X77854D02*
D03*
X83760D02*
D03*
X60039Y44291D02*
D03*
X54134D02*
D03*
X31496Y116142D02*
D03*
X37402D02*
D03*
D25*
X175197Y161417D02*
D03*
Y155512D02*
D03*
X71260Y19094D02*
D03*
Y25000D02*
D03*
X78740Y25000D02*
D03*
Y19094D02*
D03*
D26*
X161417Y9843D02*
D03*
Y74803D02*
D03*
X39370Y125984D02*
D03*
Y190945D02*
D03*
D27*
X23622Y87598D02*
D03*
D28*
X172244Y106299D02*
D03*
X150591D02*
D03*
D29*
X100394Y164370D02*
D03*
Y191929D02*
D03*
Y36417D02*
D03*
Y8858D02*
D03*
D30*
X195591Y151591D02*
D03*
X5591Y95591D02*
D03*
Y85591D02*
D03*
Y5591D02*
D03*
Y15590D02*
D03*
Y25591D02*
D03*
Y35591D02*
D03*
Y45591D02*
D03*
X195591Y5591D02*
D03*
Y15590D02*
D03*
Y65591D02*
D03*
Y55590D02*
D03*
Y45591D02*
D03*
Y35591D02*
D03*
Y25591D02*
D03*
X5591Y75591D02*
D03*
Y135591D02*
D03*
Y125591D02*
D03*
Y115591D02*
D03*
Y105591D02*
D03*
X195591Y131591D02*
D03*
Y141591D02*
D03*
Y161591D02*
D03*
Y171591D02*
D03*
Y121591D02*
D03*
Y111591D02*
D03*
Y101591D02*
D03*
Y91591D02*
D03*
D31*
X110236Y127953D02*
D03*
X100394Y70866D02*
D03*
X90551Y127953D02*
D03*
Y70866D02*
D03*
X110236D02*
D03*
D32*
X15748Y5906D02*
D03*
X111221Y142717D02*
D03*
X15748Y35433D02*
D03*
X115748Y66142D02*
D03*
X130315Y73622D02*
D03*
X90551Y134843D02*
D03*
X85039Y66142D02*
D03*
X70079Y72835D02*
D03*
X15748Y15748D02*
D03*
X23622Y73819D02*
D03*
X31496Y35433D02*
D03*
X16732Y65945D02*
D03*
X52165Y60039D02*
D03*
X139764Y161417D02*
D03*
X143701Y115157D02*
D03*
X158465Y153543D02*
D03*
X122047Y9449D02*
D03*
D33*
X125591Y100394D02*
D03*
X75197D02*
D03*
D34*
X138560Y140559D02*
D03*
D35*
X5591Y55590D02*
D03*
X195591Y75590D02*
D03*
X5591Y145591D02*
D03*
X195591Y181591D02*
D03*
M02*
