M48
;Layer_Color=9474304
;FILE_FORMAT=2:4
INCH,TZ
;TYPE=PLATED
T01F00S00C0.0079
T02F00S00C0.0276
T03F00S00C0.0433
T05F00S00C0.0689
;TYPE=NON_PLATED
T06F00S00C0.0551
%
T01
X13386Y6654
X13110Y8661
X16772Y8937
X17677
X17618Y11516
X10039Y5866
X9370Y3543
X7126Y3701
X6378Y2992
X6693Y6654
X7008Y8622
X4961Y8307
X5211Y7779
X3996Y7382
X4173Y10236
Y10945
X3228Y4409
X1750Y5254
X9291Y787
X10709Y2087
X10433Y13189
X10748Y16457
X10787Y19331
X9291Y17953
X7165Y13504
X12098Y14291
X14094Y15118
X14764Y13425
X18228Y13819
T02
X12205Y945
X11575Y6614
X13032Y7362
X14370Y11516
X8504Y6614
X7008Y7283
X5217Y6004
X1673Y6594
X2362Y7382
X1575Y3543
X3150
X1575Y1575
Y591
X9055Y13484
X11122Y14272
X13976Y16142
X15846Y15354
T03
X19559Y559
Y1559
Y2559
Y3559
Y4559
Y5559
Y6559
Y7559
Y9159
Y10159
Y11159
X11024Y7087
X10039Y7087
X9055Y7087
X559Y7559
Y8559
Y9559
Y10559
Y11559
Y5559
Y4559
Y3559
Y2559
Y1559
Y559
Y12559
Y13559
Y14559
X9055Y12795
X11024
X19559Y13159
Y14159
Y15159
Y16159
Y17159
Y18159
Y12159
T05
X13856Y14056
T06
X10039Y886
Y3642
Y16437
Y19193
M30
