G04*
G04 #@! TF.GenerationSoftware,Altium Limited,Altium Designer,25.5.2 (35)*
G04*
G04 Layer_Physical_Order=3*
G04 Layer_Color=16440176*
%FSLAX25Y25*%
%MOIN*%
G70*
G04*
G04 #@! TF.SameCoordinates,2A145D8D-9587-4F24-A34D-C9C291957F30*
G04*
G04*
G04 #@! TF.FilePolarity,Positive*
G04*
G01*
G75*
%ADD63C,0.05512*%
%ADD64C,0.07874*%
%ADD65C,0.05906*%
%ADD66C,0.04724*%
%ADD67O,0.07087X0.09843*%
%ADD68C,0.08858*%
%ADD69R,0.07874X0.07874*%
%ADD70C,0.02362*%
G36*
X200787Y186787D02*
X190394D01*
Y176394D01*
X192055D01*
X192257Y175606D01*
X191432Y174782D01*
X190748Y173597D01*
X190394Y172275D01*
Y170906D01*
X190748Y169585D01*
X191432Y168400D01*
X192400Y167432D01*
X193376Y166869D01*
X193430Y166194D01*
X193373Y165993D01*
X192569Y165529D01*
X191653Y164612D01*
X191005Y163490D01*
X190669Y162239D01*
Y162083D01*
X195591D01*
Y161099D01*
X190669D01*
Y160943D01*
X191005Y159691D01*
X191653Y158569D01*
X192569Y157653D01*
X193373Y157188D01*
X193430Y156988D01*
X193376Y156313D01*
X192400Y155749D01*
X191432Y154781D01*
X190748Y153596D01*
X190394Y152275D01*
Y150906D01*
X190748Y149585D01*
X191432Y148400D01*
X192400Y147432D01*
X193070Y147045D01*
Y146136D01*
X192400Y145749D01*
X191432Y144781D01*
X190748Y143596D01*
X190394Y142275D01*
Y140906D01*
X190748Y139585D01*
X191432Y138400D01*
X192400Y137432D01*
X193070Y137045D01*
Y136136D01*
X192400Y135749D01*
X191432Y134782D01*
X190748Y133597D01*
X190394Y132275D01*
Y130906D01*
X190748Y129585D01*
X191432Y128400D01*
X192400Y127432D01*
X193070Y127045D01*
Y126136D01*
X192400Y125749D01*
X191432Y124782D01*
X190748Y123597D01*
X190394Y122275D01*
Y120906D01*
X190748Y119585D01*
X191432Y118400D01*
X192400Y117432D01*
X193070Y117045D01*
Y116136D01*
X192400Y115749D01*
X191432Y114781D01*
X190748Y113596D01*
X190394Y112275D01*
Y110906D01*
X190748Y109585D01*
X191432Y108400D01*
X192400Y107432D01*
X193070Y107045D01*
Y106136D01*
X192400Y105749D01*
X191432Y104781D01*
X190748Y103596D01*
X190394Y102275D01*
Y100906D01*
X190748Y99585D01*
X191432Y98400D01*
X192400Y97432D01*
X193070Y97045D01*
Y96136D01*
X192400Y95749D01*
X191432Y94782D01*
X190748Y93597D01*
X190394Y92275D01*
Y90906D01*
X190748Y89585D01*
X191432Y88400D01*
X192400Y87432D01*
X193585Y86748D01*
X194906Y86394D01*
X196275D01*
X197597Y86748D01*
X198782Y87432D01*
X199749Y88400D01*
X200000Y88834D01*
X200787Y88623D01*
Y80787D01*
X190394D01*
Y70394D01*
X192055D01*
X192257Y69606D01*
X191432Y68782D01*
X190748Y67597D01*
X190394Y66275D01*
Y64906D01*
X190748Y63585D01*
X191432Y62400D01*
X192400Y61432D01*
X193070Y61045D01*
Y60136D01*
X192400Y59749D01*
X191432Y58781D01*
X190748Y57596D01*
X190394Y56275D01*
Y54906D01*
X190748Y53585D01*
X191432Y52400D01*
X192400Y51432D01*
X193070Y51045D01*
Y50136D01*
X192400Y49749D01*
X191432Y48781D01*
X190748Y47596D01*
X190394Y46275D01*
Y44906D01*
X190748Y43585D01*
X191432Y42400D01*
X192400Y41432D01*
X193070Y41045D01*
Y40136D01*
X192400Y39749D01*
X191432Y38781D01*
X190748Y37596D01*
X190394Y36275D01*
Y34906D01*
X190748Y33585D01*
X191432Y32400D01*
X192400Y31432D01*
X193070Y31045D01*
Y30136D01*
X192400Y29749D01*
X191432Y28782D01*
X190748Y27597D01*
X190394Y26275D01*
Y24906D01*
X190748Y23585D01*
X191432Y22400D01*
X192400Y21432D01*
X193070Y21045D01*
Y20136D01*
X192400Y19749D01*
X191432Y18781D01*
X190748Y17596D01*
X190394Y16275D01*
Y14906D01*
X190748Y13585D01*
X191432Y12400D01*
X192400Y11432D01*
X193070Y11045D01*
Y10136D01*
X192400Y9749D01*
X191432Y8782D01*
X190748Y7597D01*
X190394Y6275D01*
Y4906D01*
X190748Y3585D01*
X191432Y2400D01*
X192400Y1432D01*
X192892Y1148D01*
X193165Y100D01*
X193106Y0D01*
X8075D01*
X8016Y100D01*
X8289Y1148D01*
X8782Y1432D01*
X9749Y2400D01*
X10433Y3585D01*
X10787Y4906D01*
Y6275D01*
X10433Y7597D01*
X9749Y8782D01*
X8782Y9749D01*
X8111Y10136D01*
Y11045D01*
X8782Y11432D01*
X9749Y12400D01*
X10433Y13585D01*
X10787Y14906D01*
Y16275D01*
X10433Y17596D01*
X9749Y18781D01*
X8782Y19749D01*
X8111Y20136D01*
Y21045D01*
X8782Y21432D01*
X9749Y22400D01*
X10433Y23585D01*
X10787Y24906D01*
Y26275D01*
X10433Y27597D01*
X9749Y28782D01*
X8782Y29749D01*
X8111Y30136D01*
Y31045D01*
X8782Y31432D01*
X9749Y32400D01*
X10433Y33585D01*
X10787Y34906D01*
Y36275D01*
X10433Y37596D01*
X9749Y38781D01*
X8782Y39749D01*
X8111Y40136D01*
Y41045D01*
X8782Y41432D01*
X9749Y42400D01*
X10433Y43585D01*
X10787Y44906D01*
Y46275D01*
X10433Y47596D01*
X9749Y48781D01*
X8924Y49606D01*
X9126Y50394D01*
X10787D01*
Y60787D01*
X787D01*
X394Y60787D01*
X0Y61412D01*
Y73106D01*
X100Y73165D01*
X1148Y72892D01*
X1432Y72400D01*
X2400Y71432D01*
X3585Y70748D01*
X4906Y70394D01*
X6275D01*
X7597Y70748D01*
X8782Y71432D01*
X9749Y72400D01*
X10433Y73585D01*
X10787Y74906D01*
Y76275D01*
X10433Y77596D01*
X9749Y78781D01*
X8782Y79749D01*
X8111Y80136D01*
Y81045D01*
X8782Y81432D01*
X9749Y82400D01*
X10433Y83585D01*
X10787Y84906D01*
Y86275D01*
X10433Y87596D01*
X9749Y88781D01*
X8782Y89749D01*
X8111Y90136D01*
Y91045D01*
X8782Y91432D01*
X9749Y92400D01*
X10433Y93585D01*
X10787Y94906D01*
Y96275D01*
X10433Y97597D01*
X9749Y98782D01*
X8782Y99749D01*
X8111Y100136D01*
Y101045D01*
X8782Y101432D01*
X9749Y102400D01*
X10433Y103585D01*
X10787Y104906D01*
Y106275D01*
X10433Y107597D01*
X9749Y108782D01*
X8782Y109749D01*
X7806Y110312D01*
X7752Y110988D01*
X7808Y111188D01*
X8612Y111653D01*
X9528Y112569D01*
X10176Y113691D01*
X10512Y114943D01*
Y115099D01*
X5590D01*
Y116083D01*
X10512D01*
Y116238D01*
X10176Y117490D01*
X9528Y118612D01*
X8612Y119529D01*
X7808Y119993D01*
X7752Y120194D01*
X7806Y120869D01*
X8782Y121432D01*
X9749Y122400D01*
X10433Y123585D01*
X10787Y124906D01*
Y126275D01*
X10433Y127596D01*
X9749Y128781D01*
X8782Y129749D01*
X8111Y130136D01*
Y131045D01*
X8782Y131432D01*
X9749Y132400D01*
X10433Y133585D01*
X10787Y134906D01*
Y136275D01*
X10433Y137596D01*
X9749Y138781D01*
X8924Y139606D01*
X9126Y140394D01*
X10787D01*
Y150787D01*
X787D01*
X394Y150787D01*
X0Y151412D01*
Y200787D01*
X200787D01*
Y186787D01*
D02*
G37*
%LPC*%
G36*
X108281Y195354D02*
X107467D01*
X106714Y195043D01*
X106138Y194467D01*
X105827Y193714D01*
Y192900D01*
X106138Y192147D01*
X106714Y191571D01*
X107467Y191260D01*
X108281D01*
X109034Y191571D01*
X109610Y192147D01*
X109921Y192900D01*
Y193714D01*
X109610Y194467D01*
X109034Y195043D01*
X108281Y195354D01*
D02*
G37*
G36*
X100871Y195551D02*
X99917D01*
X98996Y195304D01*
X98170Y194827D01*
X97495Y194153D01*
X97018Y193327D01*
X96772Y192406D01*
Y191452D01*
X97018Y190531D01*
X97495Y189705D01*
X98170Y189031D01*
X98996Y188554D01*
X99917Y188307D01*
X100871D01*
X101792Y188554D01*
X102618Y189031D01*
X103292Y189705D01*
X103769Y190531D01*
X104016Y191452D01*
Y192406D01*
X103769Y193327D01*
X103292Y194153D01*
X102618Y194827D01*
X101792Y195304D01*
X100871Y195551D01*
D02*
G37*
G36*
X93321Y181575D02*
X92506D01*
X91754Y181263D01*
X91178Y180687D01*
X90866Y179935D01*
Y179120D01*
X91178Y178368D01*
X91754Y177792D01*
X92506Y177480D01*
X93321D01*
X94073Y177792D01*
X94649Y178368D01*
X94961Y179120D01*
Y179935D01*
X94649Y180687D01*
X94073Y181263D01*
X93321Y181575D01*
D02*
G37*
G36*
X107887Y166614D02*
X107073D01*
X106321Y166303D01*
X105745Y165727D01*
X105433Y164974D01*
Y164160D01*
X105745Y163407D01*
X106321Y162831D01*
X107073Y162520D01*
X107887D01*
X108640Y162831D01*
X109216Y163407D01*
X109528Y164160D01*
Y164974D01*
X109216Y165727D01*
X108640Y166303D01*
X107887Y166614D01*
D02*
G37*
G36*
X100871Y167992D02*
X99917D01*
X98996Y167745D01*
X98170Y167268D01*
X97495Y166594D01*
X97018Y165768D01*
X96772Y164847D01*
Y163893D01*
X97018Y162972D01*
X97495Y162146D01*
X98170Y161472D01*
X98996Y160995D01*
X99917Y160748D01*
X100871D01*
X101792Y160995D01*
X102618Y161472D01*
X103292Y162146D01*
X103769Y162972D01*
X104016Y163893D01*
Y164847D01*
X103769Y165768D01*
X103292Y166594D01*
X102618Y167268D01*
X101792Y167745D01*
X100871Y167992D01*
D02*
G37*
G36*
X140241Y165039D02*
X139287D01*
X138366Y164793D01*
X137540Y164316D01*
X136865Y163641D01*
X136389Y162815D01*
X136142Y161894D01*
Y160941D01*
X136389Y160019D01*
X136865Y159193D01*
X137540Y158519D01*
X138366Y158042D01*
X139287Y157795D01*
X140241D01*
X141162Y158042D01*
X141988Y158519D01*
X142662Y159193D01*
X143139Y160019D01*
X143386Y160941D01*
Y161894D01*
X143139Y162815D01*
X142662Y163641D01*
X141988Y164316D01*
X141162Y164793D01*
X140241Y165039D01*
D02*
G37*
G36*
X141437Y153321D02*
Y151673D01*
X143085D01*
X142781Y152408D01*
X142172Y153017D01*
X141437Y153321D01*
D02*
G37*
G36*
X140453D02*
X139718Y153017D01*
X139109Y152408D01*
X138805Y151673D01*
X140453D01*
Y153321D01*
D02*
G37*
G36*
X158941Y157165D02*
X157988D01*
X157067Y156919D01*
X156241Y156442D01*
X155566Y155767D01*
X155089Y154941D01*
X154842Y154020D01*
Y153067D01*
X155089Y152145D01*
X155566Y151319D01*
X156241Y150645D01*
X157067Y150168D01*
X157988Y149921D01*
X158941D01*
X159863Y150168D01*
X160689Y150645D01*
X161363Y151319D01*
X161840Y152145D01*
X162087Y153067D01*
Y154020D01*
X161840Y154941D01*
X161363Y155767D01*
X160689Y156442D01*
X159863Y156919D01*
X158941Y157165D01*
D02*
G37*
G36*
X143085Y150689D02*
X141437D01*
Y149041D01*
X142172Y149345D01*
X142781Y149954D01*
X143085Y150689D01*
D02*
G37*
G36*
X140453D02*
X138805D01*
X139109Y149954D01*
X139718Y149345D01*
X140453Y149041D01*
Y150689D01*
D02*
G37*
G36*
X121391Y144961D02*
X120577D01*
X119825Y144649D01*
X119249Y144073D01*
X118937Y143321D01*
Y142506D01*
X119249Y141754D01*
X119825Y141178D01*
X120577Y140866D01*
X121391D01*
X122144Y141178D01*
X122720Y141754D01*
X123031Y142506D01*
Y143321D01*
X122720Y144073D01*
X122144Y144649D01*
X121391Y144961D01*
D02*
G37*
G36*
X111697Y146339D02*
X110744D01*
X109822Y146092D01*
X108996Y145615D01*
X108322Y144940D01*
X107845Y144115D01*
X107598Y143193D01*
Y142240D01*
X107845Y141319D01*
X108322Y140493D01*
X108996Y139818D01*
X109822Y139341D01*
X110744Y139094D01*
X111697D01*
X112619Y139341D01*
X113444Y139818D01*
X114119Y140493D01*
X114596Y141319D01*
X114842Y142240D01*
Y143193D01*
X114596Y144115D01*
X114119Y144940D01*
X113444Y145615D01*
X112619Y146092D01*
X111697Y146339D01*
D02*
G37*
G36*
X182691Y140236D02*
X181876D01*
X181124Y139925D01*
X180548Y139349D01*
X180236Y138596D01*
Y137782D01*
X180548Y137029D01*
X181124Y136453D01*
X181876Y136142D01*
X182691D01*
X183443Y136453D01*
X184019Y137029D01*
X184331Y137782D01*
Y138596D01*
X184019Y139349D01*
X183443Y139925D01*
X182691Y140236D01*
D02*
G37*
G36*
X72146Y137179D02*
Y135531D01*
X73793D01*
X73489Y136266D01*
X72880Y136875D01*
X72146Y137179D01*
D02*
G37*
G36*
X71161D02*
X70427Y136875D01*
X69818Y136266D01*
X69514Y135531D01*
X71161D01*
Y137179D01*
D02*
G37*
G36*
X139309Y146248D02*
X137811D01*
X136364Y145861D01*
X135067Y145112D01*
X134008Y144053D01*
X133259Y142755D01*
X132871Y141308D01*
Y139811D01*
X133259Y138364D01*
X134008Y137066D01*
X135067Y136007D01*
X136364Y135258D01*
X137811Y134871D01*
X139309D01*
X140756Y135258D01*
X142053Y136007D01*
X143112Y137066D01*
X143861Y138364D01*
X144249Y139811D01*
Y141308D01*
X143861Y142755D01*
X143112Y144053D01*
X142053Y145112D01*
X140756Y145861D01*
X139309Y146248D01*
D02*
G37*
G36*
X73793Y134547D02*
X72146D01*
Y132899D01*
X72880Y133204D01*
X73489Y133813D01*
X73793Y134547D01*
D02*
G37*
G36*
X71161D02*
X69514D01*
X69818Y133813D01*
X70427Y133204D01*
X71161Y132899D01*
Y134547D01*
D02*
G37*
G36*
X148045Y136299D02*
X147231D01*
X146478Y135987D01*
X145902Y135412D01*
X145591Y134659D01*
Y133845D01*
X145902Y133092D01*
X146478Y132516D01*
X147231Y132205D01*
X148045D01*
X148798Y132516D01*
X149373Y133092D01*
X149685Y133845D01*
Y134659D01*
X149373Y135412D01*
X148798Y135987D01*
X148045Y136299D01*
D02*
G37*
G36*
X104738Y133937D02*
X103923D01*
X103171Y133625D01*
X102595Y133049D01*
X102284Y132297D01*
Y131483D01*
X102595Y130730D01*
X103171Y130154D01*
X103923Y129842D01*
X104738D01*
X105490Y130154D01*
X106066Y130730D01*
X106378Y131483D01*
Y132297D01*
X106066Y133049D01*
X105490Y133625D01*
X104738Y133937D01*
D02*
G37*
G36*
X110791Y132165D02*
X109682D01*
X108610Y131878D01*
X107650Y131324D01*
X106865Y130539D01*
X106311Y129579D01*
X106024Y128507D01*
Y127398D01*
X106311Y126327D01*
X106865Y125366D01*
X107650Y124582D01*
X108610Y124027D01*
X109682Y123740D01*
X110791D01*
X111862Y124027D01*
X112823Y124582D01*
X113607Y125366D01*
X114162Y126327D01*
X114449Y127398D01*
Y128507D01*
X114162Y129579D01*
X113607Y130539D01*
X112823Y131324D01*
X111862Y131878D01*
X110791Y132165D01*
D02*
G37*
G36*
X91028Y138465D02*
X90074D01*
X89153Y138218D01*
X88327Y137741D01*
X87653Y137066D01*
X87176Y136241D01*
X86929Y135319D01*
Y134366D01*
X87176Y133444D01*
X87653Y132618D01*
X88011Y132260D01*
X87966Y131354D01*
X87920Y131279D01*
X87180Y130539D01*
X86626Y129579D01*
X86339Y128507D01*
Y127398D01*
X86626Y126327D01*
X87180Y125366D01*
X87965Y124582D01*
X88925Y124027D01*
X89997Y123740D01*
X91106D01*
X92177Y124027D01*
X93138Y124582D01*
X93922Y125366D01*
X94477Y126327D01*
X94764Y127398D01*
Y128507D01*
X94477Y129579D01*
X93922Y130539D01*
X93182Y131279D01*
X93136Y131354D01*
X93091Y132260D01*
X93449Y132618D01*
X93926Y133444D01*
X94173Y134366D01*
Y135319D01*
X93926Y136241D01*
X93449Y137066D01*
X92775Y137741D01*
X91949Y138218D01*
X91028Y138465D01*
D02*
G37*
G36*
X176588Y117205D02*
X175774D01*
X175021Y116893D01*
X174445Y116317D01*
X174134Y115565D01*
Y114750D01*
X174445Y113998D01*
X175021Y113422D01*
X175774Y113110D01*
X176588D01*
X177341Y113422D01*
X177917Y113998D01*
X178228Y114750D01*
Y115565D01*
X177917Y116317D01*
X177341Y116893D01*
X176588Y117205D01*
D02*
G37*
G36*
X144178Y118780D02*
X143224D01*
X142303Y118533D01*
X141477Y118056D01*
X140802Y117382D01*
X140326Y116556D01*
X140079Y115634D01*
Y114681D01*
X140326Y113759D01*
X140802Y112934D01*
X141477Y112259D01*
X142303Y111782D01*
X143224Y111535D01*
X144178D01*
X145099Y111782D01*
X145925Y112259D01*
X146599Y112934D01*
X147076Y113759D01*
X147323Y114681D01*
Y115634D01*
X147076Y116556D01*
X146599Y117382D01*
X145925Y118056D01*
X145099Y118533D01*
X144178Y118780D01*
D02*
G37*
G36*
X42140Y111496D02*
X41325D01*
X40573Y111184D01*
X39997Y110608D01*
X39685Y109856D01*
Y109042D01*
X39997Y108289D01*
X40573Y107713D01*
X41325Y107402D01*
X42140D01*
X42892Y107713D01*
X43468Y108289D01*
X43780Y109042D01*
Y109856D01*
X43468Y110608D01*
X42892Y111184D01*
X42140Y111496D01*
D02*
G37*
G36*
Y104409D02*
X41325D01*
X40573Y104098D01*
X39997Y103522D01*
X39685Y102769D01*
Y101955D01*
X39997Y101202D01*
X40573Y100627D01*
X41325Y100315D01*
X42140D01*
X42892Y100627D01*
X43468Y101202D01*
X43780Y101955D01*
Y102769D01*
X43468Y103522D01*
X42892Y104098D01*
X42140Y104409D01*
D02*
G37*
G36*
X125591Y106616D02*
X124337Y106451D01*
X123168Y105967D01*
X122165Y105197D01*
X121395Y104194D01*
X120911Y103025D01*
X120746Y101772D01*
Y99016D01*
X120911Y97762D01*
X121395Y96593D01*
X122165Y95590D01*
X123168Y94820D01*
X124337Y94336D01*
X125591Y94171D01*
X126844Y94336D01*
X128013Y94820D01*
X129016Y95590D01*
X129786Y96593D01*
X130270Y97762D01*
X130435Y99016D01*
Y101772D01*
X130270Y103025D01*
X129786Y104194D01*
X129016Y105197D01*
X128013Y105967D01*
X126844Y106451D01*
X125591Y106616D01*
D02*
G37*
G36*
X75197D02*
X73943Y106451D01*
X72775Y105967D01*
X71771Y105197D01*
X71001Y104194D01*
X70517Y103025D01*
X70352Y101772D01*
Y99016D01*
X70517Y97762D01*
X71001Y96593D01*
X71771Y95590D01*
X72775Y94820D01*
X73943Y94336D01*
X75197Y94171D01*
X76451Y94336D01*
X77619Y94820D01*
X78623Y95590D01*
X79392Y96593D01*
X79876Y97762D01*
X80041Y99016D01*
Y101772D01*
X79876Y103025D01*
X79392Y104194D01*
X78623Y105197D01*
X77619Y105967D01*
X76451Y106451D01*
X75197Y106616D01*
D02*
G37*
G36*
X177264Y91510D02*
Y89862D01*
X178912D01*
X178607Y90597D01*
X177998Y91206D01*
X177264Y91510D01*
D02*
G37*
G36*
X176279D02*
X175545Y91206D01*
X174936Y90597D01*
X174632Y89862D01*
X176279D01*
Y91510D01*
D02*
G37*
G36*
X168124Y91417D02*
X167309D01*
X166557Y91106D01*
X165981Y90530D01*
X165669Y89777D01*
Y88963D01*
X165981Y88210D01*
X166557Y87634D01*
X167309Y87323D01*
X168124D01*
X168876Y87634D01*
X169452Y88210D01*
X169764Y88963D01*
Y89777D01*
X169452Y90530D01*
X168876Y91106D01*
X168124Y91417D01*
D02*
G37*
G36*
X178912Y88878D02*
X177264D01*
Y87230D01*
X177998Y87534D01*
X178607Y88143D01*
X178912Y88878D01*
D02*
G37*
G36*
X176279D02*
X174632D01*
X174936Y88143D01*
X175545Y87534D01*
X176279Y87230D01*
Y88878D01*
D02*
G37*
G36*
X131510Y88661D02*
X130695D01*
X129943Y88350D01*
X129367Y87774D01*
X129055Y87021D01*
Y86207D01*
X129367Y85454D01*
X129943Y84879D01*
X130695Y84567D01*
X131510D01*
X132262Y84879D01*
X132838Y85454D01*
X133150Y86207D01*
Y87021D01*
X132838Y87774D01*
X132262Y88350D01*
X131510Y88661D01*
D02*
G37*
G36*
X70486Y88268D02*
X69671D01*
X68919Y87956D01*
X68343Y87380D01*
X68032Y86628D01*
Y85813D01*
X68343Y85061D01*
X68919Y84485D01*
X69671Y84173D01*
X70486D01*
X71238Y84485D01*
X71814Y85061D01*
X72126Y85813D01*
Y86628D01*
X71814Y87380D01*
X71238Y87956D01*
X70486Y88268D01*
D02*
G37*
G36*
X50014Y85118D02*
X49199D01*
X48447Y84806D01*
X47871Y84231D01*
X47559Y83478D01*
Y82664D01*
X47871Y81911D01*
X48447Y81335D01*
X49199Y81024D01*
X50014D01*
X50766Y81335D01*
X51342Y81911D01*
X51653Y82664D01*
Y83478D01*
X51342Y84231D01*
X50766Y84806D01*
X50014Y85118D01*
D02*
G37*
G36*
X52519Y79842D02*
X51704D01*
X50952Y79531D01*
X50376Y78955D01*
X50064Y78202D01*
Y77388D01*
X50376Y76635D01*
X50952Y76059D01*
X51704Y75748D01*
X52519D01*
X53271Y76059D01*
X53847Y76635D01*
X54159Y77388D01*
Y78202D01*
X53847Y78955D01*
X53271Y79531D01*
X52519Y79842D01*
D02*
G37*
G36*
X40453Y75959D02*
Y74311D01*
X42101D01*
X41796Y75046D01*
X41187Y75655D01*
X40453Y75959D01*
D02*
G37*
G36*
X39469D02*
X38734Y75655D01*
X38125Y75046D01*
X37821Y74311D01*
X39469D01*
Y75959D01*
D02*
G37*
G36*
X42101Y73327D02*
X40453D01*
Y71679D01*
X41187Y71983D01*
X41796Y72592D01*
X42101Y73327D01*
D02*
G37*
G36*
X39469D02*
X37821D01*
X38125Y72592D01*
X38734Y71983D01*
X39469Y71679D01*
Y73327D01*
D02*
G37*
G36*
X24099Y77441D02*
X23145D01*
X22224Y77194D01*
X21398Y76717D01*
X20724Y76043D01*
X20247Y75217D01*
X20000Y74296D01*
Y73342D01*
X20247Y72421D01*
X20724Y71595D01*
X21398Y70921D01*
X22224Y70444D01*
X23145Y70197D01*
X24099D01*
X25020Y70444D01*
X25846Y70921D01*
X26520Y71595D01*
X26997Y72421D01*
X27244Y73342D01*
Y74296D01*
X26997Y75217D01*
X26520Y76043D01*
X25846Y76717D01*
X25020Y77194D01*
X24099Y77441D01*
D02*
G37*
G36*
X130792Y77244D02*
X129838D01*
X128917Y76997D01*
X128091Y76520D01*
X127417Y75846D01*
X126940Y75020D01*
X126693Y74099D01*
Y73145D01*
X126940Y72224D01*
X127417Y71398D01*
X128091Y70724D01*
X128917Y70247D01*
X129838Y70000D01*
X130792D01*
X131713Y70247D01*
X132539Y70724D01*
X133213Y71398D01*
X133690Y72224D01*
X133937Y73145D01*
Y74099D01*
X133690Y75020D01*
X133213Y75846D01*
X132539Y76520D01*
X131713Y76997D01*
X130792Y77244D01*
D02*
G37*
G36*
X91106Y75079D02*
X89997D01*
X88925Y74792D01*
X87965Y74237D01*
X87180Y73453D01*
X86626Y72492D01*
X86339Y71421D01*
Y70359D01*
X86329Y70303D01*
X85682Y69719D01*
X85516Y69764D01*
X84562D01*
X83641Y69517D01*
X82815Y69040D01*
X82141Y68366D01*
X81664Y67540D01*
X81417Y66619D01*
Y65665D01*
X81664Y64744D01*
X82141Y63918D01*
X82815Y63243D01*
X83641Y62766D01*
X84562Y62520D01*
X85516D01*
X86437Y62766D01*
X87263Y63243D01*
X87938Y63918D01*
X88415Y64744D01*
X88661Y65665D01*
Y66226D01*
X89316Y66782D01*
X89420Y66808D01*
X89997Y66654D01*
X91106D01*
X92177Y66941D01*
X93138Y67495D01*
X93922Y68279D01*
X94477Y69240D01*
X94764Y70311D01*
Y71421D01*
X94477Y72492D01*
X93922Y73453D01*
X93138Y74237D01*
X92177Y74792D01*
X91106Y75079D01*
D02*
G37*
G36*
X70556Y76457D02*
X69602D01*
X68681Y76210D01*
X67855Y75733D01*
X67180Y75059D01*
X66703Y74233D01*
X66457Y73312D01*
Y72358D01*
X66703Y71437D01*
X67180Y70611D01*
X67855Y69936D01*
X68681Y69459D01*
X69602Y69213D01*
X70556D01*
X71477Y69459D01*
X72303Y69936D01*
X72977Y70611D01*
X73454Y71437D01*
X73701Y72358D01*
Y73312D01*
X73454Y74233D01*
X72977Y75059D01*
X72303Y75733D01*
X71477Y76210D01*
X70556Y76457D01*
D02*
G37*
G36*
X100948Y75079D02*
X99839D01*
X98768Y74792D01*
X97807Y74237D01*
X97023Y73453D01*
X96468Y72492D01*
X96181Y71421D01*
Y70311D01*
X96468Y69240D01*
X97023Y68280D01*
X97807Y67495D01*
X98768Y66941D01*
X99839Y66654D01*
X100948D01*
X102020Y66941D01*
X102980Y67495D01*
X103765Y68280D01*
X104319Y69240D01*
X104606Y70311D01*
Y71421D01*
X104319Y72492D01*
X103765Y73453D01*
X102980Y74237D01*
X102020Y74792D01*
X100948Y75079D01*
D02*
G37*
G36*
X134265Y68583D02*
X133451D01*
X132699Y68271D01*
X132123Y67695D01*
X131811Y66943D01*
Y66128D01*
X132123Y65376D01*
X132699Y64800D01*
X133451Y64488D01*
X134265D01*
X135018Y64800D01*
X135594Y65376D01*
X135906Y66128D01*
Y66943D01*
X135594Y67695D01*
X135018Y68271D01*
X134265Y68583D01*
D02*
G37*
G36*
X67336D02*
X66522D01*
X65769Y68271D01*
X65194Y67695D01*
X64882Y66943D01*
Y66128D01*
X65194Y65376D01*
X65769Y64800D01*
X66522Y64488D01*
X67336D01*
X68089Y64800D01*
X68665Y65376D01*
X68976Y66128D01*
Y66943D01*
X68665Y67695D01*
X68089Y68271D01*
X67336Y68583D01*
D02*
G37*
G36*
X110791Y75079D02*
X109682D01*
X108610Y74792D01*
X107650Y74237D01*
X106865Y73453D01*
X106311Y72492D01*
X106024Y71421D01*
Y70311D01*
X106311Y69240D01*
X106865Y68279D01*
X107650Y67495D01*
X108610Y66941D01*
X109682Y66654D01*
X110791D01*
X111367Y66808D01*
X111472Y66782D01*
X112126Y66226D01*
Y65665D01*
X112373Y64744D01*
X112850Y63918D01*
X113524Y63243D01*
X114350Y62766D01*
X115271Y62520D01*
X116225D01*
X117146Y62766D01*
X117972Y63243D01*
X118646Y63918D01*
X119123Y64744D01*
X119370Y65665D01*
Y66619D01*
X119123Y67540D01*
X118646Y68366D01*
X117972Y69040D01*
X117146Y69517D01*
X116225Y69764D01*
X115271D01*
X115105Y69719D01*
X114458Y70303D01*
X114449Y70359D01*
Y71421D01*
X114162Y72492D01*
X113607Y73453D01*
X112823Y74237D01*
X111862Y74792D01*
X110791Y75079D01*
D02*
G37*
G36*
X17209Y69567D02*
X16255D01*
X15334Y69320D01*
X14508Y68843D01*
X13834Y68169D01*
X13357Y67343D01*
X13110Y66422D01*
Y65468D01*
X13357Y64547D01*
X13834Y63721D01*
X14508Y63046D01*
X15334Y62570D01*
X16255Y62323D01*
X17209D01*
X18130Y62570D01*
X18956Y63046D01*
X19631Y63721D01*
X20108Y64547D01*
X20354Y65468D01*
Y66422D01*
X20108Y67343D01*
X19631Y68169D01*
X18956Y68843D01*
X18130Y69320D01*
X17209Y69567D01*
D02*
G37*
G36*
X100886Y60801D02*
Y59153D01*
X102534D01*
X102229Y59888D01*
X101620Y60497D01*
X100886Y60801D01*
D02*
G37*
G36*
X99902D02*
X99167Y60497D01*
X98558Y59888D01*
X98254Y59153D01*
X99902D01*
Y60801D01*
D02*
G37*
G36*
X102534Y58169D02*
X100886D01*
Y56521D01*
X101620Y56826D01*
X102229Y57435D01*
X102534Y58169D01*
D02*
G37*
G36*
X99902D02*
X98254D01*
X98558Y57435D01*
X99167Y56826D01*
X99902Y56521D01*
Y58169D01*
D02*
G37*
G36*
X52642Y63661D02*
X51688D01*
X50767Y63415D01*
X49941Y62938D01*
X49267Y62263D01*
X48790Y61437D01*
X48543Y60516D01*
Y59562D01*
X48790Y58641D01*
X49267Y57815D01*
X49941Y57141D01*
X50767Y56664D01*
X51688Y56417D01*
X52642D01*
X53563Y56664D01*
X54389Y57141D01*
X55064Y57815D01*
X55541Y58641D01*
X55787Y59562D01*
Y60516D01*
X55541Y61437D01*
X55064Y62263D01*
X54389Y62938D01*
X53563Y63415D01*
X52642Y63661D01*
D02*
G37*
G36*
X17907Y54587D02*
X17093D01*
X16340Y54275D01*
X15764Y53699D01*
X15453Y52947D01*
Y52132D01*
X15764Y51380D01*
X16340Y50804D01*
X17093Y50492D01*
X17907D01*
X18660Y50804D01*
X19236Y51380D01*
X19547Y52132D01*
Y52947D01*
X19236Y53699D01*
X18660Y54275D01*
X17907Y54587D01*
D02*
G37*
G36*
X32691Y46142D02*
X31876D01*
X31124Y45830D01*
X30548Y45254D01*
X30236Y44502D01*
Y43687D01*
X30548Y42935D01*
X31124Y42359D01*
X31876Y42047D01*
X32691D01*
X33443Y42359D01*
X34019Y42935D01*
X34331Y43687D01*
Y44502D01*
X34019Y45254D01*
X33443Y45830D01*
X32691Y46142D01*
D02*
G37*
G36*
X71752Y39148D02*
Y37500D01*
X73400D01*
X73096Y38234D01*
X72486Y38844D01*
X71752Y39148D01*
D02*
G37*
G36*
X70768D02*
X70033Y38844D01*
X69424Y38234D01*
X69120Y37500D01*
X70768D01*
Y39148D01*
D02*
G37*
G36*
X73400Y36516D02*
X71752D01*
Y34868D01*
X72486Y35172D01*
X73096Y35781D01*
X73400Y36516D01*
D02*
G37*
G36*
X70768D02*
X69120D01*
X69424Y35781D01*
X70033Y35172D01*
X70768Y34868D01*
Y36516D01*
D02*
G37*
G36*
X94108Y37480D02*
X93294D01*
X92541Y37169D01*
X91965Y36593D01*
X91654Y35840D01*
Y35026D01*
X91965Y34273D01*
X92541Y33698D01*
X93294Y33386D01*
X94108D01*
X94861Y33698D01*
X95436Y34273D01*
X95748Y35026D01*
Y35840D01*
X95436Y36593D01*
X94861Y37169D01*
X94108Y37480D01*
D02*
G37*
G36*
X100871Y40039D02*
X99917D01*
X98996Y39792D01*
X98170Y39316D01*
X97495Y38641D01*
X97018Y37815D01*
X96772Y36894D01*
Y35941D01*
X97018Y35019D01*
X97495Y34193D01*
X98170Y33519D01*
X98996Y33042D01*
X99917Y32795D01*
X100871D01*
X101792Y33042D01*
X102618Y33519D01*
X103292Y34193D01*
X103769Y35019D01*
X104016Y35941D01*
Y36894D01*
X103769Y37815D01*
X103292Y38641D01*
X102618Y39316D01*
X101792Y39792D01*
X100871Y40039D01*
D02*
G37*
G36*
X31973Y39055D02*
X31019D01*
X30098Y38808D01*
X29272Y38331D01*
X28598Y37657D01*
X28121Y36831D01*
X27874Y35910D01*
Y34956D01*
X28121Y34035D01*
X28598Y33209D01*
X29272Y32535D01*
X30098Y32058D01*
X31019Y31811D01*
X31973D01*
X32894Y32058D01*
X33720Y32535D01*
X34394Y33209D01*
X34871Y34035D01*
X35118Y34956D01*
Y35910D01*
X34871Y36831D01*
X34394Y37657D01*
X33720Y38331D01*
X32894Y38808D01*
X31973Y39055D01*
D02*
G37*
G36*
X16225D02*
X15271D01*
X14350Y38808D01*
X13524Y38331D01*
X12850Y37657D01*
X12373Y36831D01*
X12126Y35910D01*
Y34956D01*
X12373Y34035D01*
X12850Y33209D01*
X13524Y32535D01*
X14350Y32058D01*
X15271Y31811D01*
X16225D01*
X17146Y32058D01*
X17972Y32535D01*
X18646Y33209D01*
X19123Y34035D01*
X19370Y34956D01*
Y35910D01*
X19123Y36831D01*
X18646Y37657D01*
X17972Y38331D01*
X17146Y38808D01*
X16225Y39055D01*
D02*
G37*
G36*
X64187Y31969D02*
X63372D01*
X62620Y31657D01*
X62044Y31081D01*
X61732Y30329D01*
Y29514D01*
X62044Y28762D01*
X62620Y28186D01*
X63372Y27874D01*
X64187D01*
X64939Y28186D01*
X65515Y28762D01*
X65827Y29514D01*
Y30329D01*
X65515Y31081D01*
X64939Y31657D01*
X64187Y31969D01*
D02*
G37*
G36*
X107494Y22913D02*
X106679D01*
X105927Y22602D01*
X105351Y22026D01*
X105039Y21273D01*
Y20459D01*
X105351Y19706D01*
X105927Y19131D01*
X106679Y18819D01*
X107494D01*
X108246Y19131D01*
X108822Y19706D01*
X109134Y20459D01*
Y21273D01*
X108822Y22026D01*
X108246Y22602D01*
X107494Y22913D01*
D02*
G37*
G36*
X16240Y19081D02*
Y16240D01*
X19081D01*
X18866Y17040D01*
X18426Y17803D01*
X17803Y18426D01*
X17040Y18866D01*
X16240Y19081D01*
D02*
G37*
G36*
X15256D02*
X14456Y18866D01*
X13693Y18426D01*
X13070Y17803D01*
X12630Y17040D01*
X12415Y16240D01*
X15256D01*
Y19081D01*
D02*
G37*
G36*
X19081Y15256D02*
X16240D01*
Y12415D01*
X17040Y12630D01*
X17803Y13070D01*
X18426Y13693D01*
X18866Y14456D01*
X19081Y15256D01*
D02*
G37*
G36*
X15256D02*
X12415D01*
X12630Y14456D01*
X13070Y13693D01*
X13693Y13070D01*
X14456Y12630D01*
X15256Y12415D01*
Y15256D01*
D02*
G37*
G36*
X122524Y13071D02*
X121570D01*
X120649Y12824D01*
X119823Y12347D01*
X119149Y11673D01*
X118672Y10847D01*
X118425Y9926D01*
Y8972D01*
X118672Y8051D01*
X119149Y7225D01*
X119823Y6550D01*
X120649Y6074D01*
X121570Y5827D01*
X122524D01*
X123445Y6074D01*
X124271Y6550D01*
X124946Y7225D01*
X125422Y8051D01*
X125669Y8972D01*
Y9926D01*
X125422Y10847D01*
X124946Y11673D01*
X124271Y12347D01*
X123445Y12824D01*
X122524Y13071D01*
D02*
G37*
G36*
X93321Y9921D02*
X92506D01*
X91754Y9610D01*
X91178Y9034D01*
X90866Y8281D01*
Y7467D01*
X91178Y6714D01*
X91754Y6138D01*
X92506Y5827D01*
X93321D01*
X94073Y6138D01*
X94649Y6714D01*
X94961Y7467D01*
Y8281D01*
X94649Y9034D01*
X94073Y9610D01*
X93321Y9921D01*
D02*
G37*
G36*
X100871Y12480D02*
X99917D01*
X98996Y12234D01*
X98170Y11757D01*
X97495Y11082D01*
X97018Y10256D01*
X96772Y9335D01*
Y8381D01*
X97018Y7460D01*
X97495Y6634D01*
X98170Y5960D01*
X98996Y5483D01*
X99917Y5236D01*
X100871D01*
X101792Y5483D01*
X102618Y5960D01*
X103292Y6634D01*
X103769Y7460D01*
X104016Y8381D01*
Y9335D01*
X103769Y10256D01*
X103292Y11082D01*
X102618Y11757D01*
X101792Y12234D01*
X100871Y12480D01*
D02*
G37*
G36*
X16225Y9527D02*
X15271D01*
X14350Y9281D01*
X13524Y8804D01*
X12850Y8129D01*
X12373Y7304D01*
X12126Y6382D01*
Y5429D01*
X12373Y4507D01*
X12850Y3681D01*
X13524Y3007D01*
X14350Y2530D01*
X15271Y2283D01*
X16225D01*
X17146Y2530D01*
X17972Y3007D01*
X18646Y3681D01*
X19123Y4507D01*
X19370Y5429D01*
Y6382D01*
X19123Y7304D01*
X18646Y8129D01*
X17972Y8804D01*
X17146Y9281D01*
X16225Y9527D01*
D02*
G37*
%LPD*%
D63*
X100394Y164370D02*
D03*
Y191929D02*
D03*
Y36417D02*
D03*
Y8858D02*
D03*
D64*
X195591Y151591D02*
D03*
X5591Y95591D02*
D03*
Y85591D02*
D03*
Y5591D02*
D03*
Y15590D02*
D03*
Y25591D02*
D03*
Y35591D02*
D03*
Y45591D02*
D03*
X195591Y5591D02*
D03*
Y15590D02*
D03*
Y65591D02*
D03*
Y55590D02*
D03*
Y45591D02*
D03*
Y35591D02*
D03*
Y25591D02*
D03*
X5591Y75591D02*
D03*
Y135591D02*
D03*
Y125591D02*
D03*
Y115591D02*
D03*
Y105591D02*
D03*
X195591Y131591D02*
D03*
Y141591D02*
D03*
Y161591D02*
D03*
Y171591D02*
D03*
Y121591D02*
D03*
Y111591D02*
D03*
Y101591D02*
D03*
Y91591D02*
D03*
D65*
X110236Y127953D02*
D03*
X100394Y70866D02*
D03*
X90551Y127953D02*
D03*
Y70866D02*
D03*
X110236D02*
D03*
D66*
X15748Y5906D02*
D03*
X111221Y142717D02*
D03*
X15748Y35433D02*
D03*
X115748Y66142D02*
D03*
X130315Y73622D02*
D03*
X90551Y134843D02*
D03*
X85039Y66142D02*
D03*
X70079Y72835D02*
D03*
X15748Y15748D02*
D03*
X23622Y73819D02*
D03*
X31496Y35433D02*
D03*
X16732Y65945D02*
D03*
X52165Y60039D02*
D03*
X139764Y161417D02*
D03*
X143701Y115157D02*
D03*
X158465Y153543D02*
D03*
X122047Y9449D02*
D03*
D67*
X125591Y100394D02*
D03*
X75197D02*
D03*
D68*
X138560Y140559D02*
D03*
D69*
X5591Y55590D02*
D03*
X195591Y75590D02*
D03*
X5591Y145591D02*
D03*
X195591Y181591D02*
D03*
D70*
X120984Y142913D02*
D03*
X52112Y77795D02*
D03*
X41732Y109449D02*
D03*
X66929Y66535D02*
D03*
X49606Y83071D02*
D03*
X133858Y66535D02*
D03*
X104331Y131890D02*
D03*
X41732Y102362D02*
D03*
X63779Y29921D02*
D03*
X107874Y193307D02*
D03*
X17500Y52539D02*
D03*
X32283Y44094D02*
D03*
X92913Y7874D02*
D03*
X182283Y138189D02*
D03*
X176181Y115157D02*
D03*
X147638Y134252D02*
D03*
X167717Y89370D02*
D03*
X131102Y86614D02*
D03*
X176772Y89370D02*
D03*
X140945Y151181D02*
D03*
X71260Y37008D02*
D03*
X39961Y73819D02*
D03*
X93701Y35433D02*
D03*
X107480Y164567D02*
D03*
X70079Y86221D02*
D03*
X92913Y179528D02*
D03*
X71653Y135039D02*
D03*
X107087Y20866D02*
D03*
X100394Y58661D02*
D03*
M02*
